<svg width="1280" height="720" viewBox="0 0 1280 720" fill="none" xmlns="http://www.w3.org/2000/svg">
  <rect width="1280" height="720" fill="#0B1020"/>
  <rect x="60" y="50" width="1160" height="620" rx="24" fill="#101A2A" stroke="#2C3A5F"/>
  <text x="80" y="110" fill="#E2E8F0" font-size="40" font-family="Segoe UI, Arial, sans-serif" font-weight="700">Image-to-Audio Converter</text>
  <rect x="120" y="170" width="240" height="220" rx="18" fill="#192C47" stroke="#4FD1C5"/>
  <text x="170" y="220" fill="#E2E8F0" font-size="28" font-family="Segoe UI, Arial, sans-serif">Upload</text>
  <text x="170" y="260" fill="#A5B4FC" font-size="18" font-family="Segoe UI, Arial, sans-serif">image.png</text>
  <rect x="520" y="170" width="240" height="220" rx="18" fill="#192C47" stroke="#60A5FA"/>
  <text x="560" y="220" fill="#E2E8F0" font-size="28" font-family="Segoe UI, Arial, sans-serif">OCR</text>
  <text x="560" y="260" fill="#93C5FD" font-size="18" font-family="Segoe UI, Arial, sans-serif">Extract text</text>
  <rect x="920" y="170" width="240" height="220" rx="18" fill="#192C47" stroke="#F9A8D4"/>
  <text x="970" y="220" fill="#E2E8F0" font-size="28" font-family="Segoe UI, Arial, sans-serif">Audio</text>
  <text x="970" y="260" fill="#FBCFE8" font-size="18" font-family="Segoe UI, Arial, sans-serif">output.mp3</text>
  <path d="M360 280H520" stroke="#7DD3FC" stroke-width="6" stroke-linecap="round"/>
  <path d="M760 280H920" stroke="#7DD3FC" stroke-width="6" stroke-linecap="round"/>
  <circle cx="440" cy="280" r="18" fill="#4FD1C5"/>
  <circle cx="840" cy="280" r="18" fill="#F9A8D4"/>
  <text x="120" y="500" fill="#DDE7F7" font-size="32" font-family="Segoe UI, Arial, sans-serif">FastAPI + Tesseract + gTTS</text>
  <rect x="120" y="530" width="360" height="90" rx="16" fill="#121F33" stroke="#334155"/>
  <text x="155" y="570" fill="#E2E8F0" font-size="24" font-family="Segoe UI, Arial, sans-serif">POST /convert</text>
  <text x="155" y="602" fill="#A7F3D0" font-size="18" font-family="Segoe UI, Arial, sans-serif">Upload image → text → spoken audio</text>
</svg>
